<svg id="Capa_1" data-name="Capa 1" xmlns="http://www.w3.org/2000/svg" viewBox="0 0 28.35 28.35"><defs><style>.cls-1{fill:#e2312a;}</style></defs><path class="cls-1" d="M20.23,1.12a.38.38,0,0,0,.25.13c.23.21.52.32.74.54a3.39,3.39,0,0,1,1.05,1.79s.05.09.08.13,0,.2,0,.3v.87L22.32,5c-.11.09-.07.2,0,.32v0l0,.06,0,0c-.16.36-.29.73-.47,1.08A13.38,13.38,0,0,1,19,10.19a19.27,19.27,0,0,1-1.77,1.48c-.08.07-.25.12-.09.26a3.16,3.16,0,0,0,.69.51h0l1,1.12.15.25c0,.18.18.26.24.42a7.09,7.09,0,0,1,.54,1.86c-.06.42.07.84,0,1.26a27.06,27.06,0,0,1-.43,3c-.05.26-.09.52-.13.78,0,.06,0,.13.06.16s.11,0,.16-.08a6.34,6.34,0,0,0,.49-.93l0-.13h0a5.42,5.42,0,0,0,.62-1.07l.19-.33c.08,0,.07-.11.07-.18a0,0,0,0,0,0,0c.16-.07.17-.25.25-.37a6.74,6.74,0,0,0,.62-.95l.06-.09h0a1,1,0,0,0,.32-.37c.13,0,.18-.17.26-.26a5,5,0,0,1,1.12-.87l.06,0c.07,0,.14,0,.18-.06h0a1.67,1.67,0,0,1,.77,0c.23.06.45.16.68.24a.84.84,0,0,0,.44.27,4.32,4.32,0,0,1,1,1.12c0,.28.1.57-.13.81l-.06.05-.07.08a6.44,6.44,0,0,0-1.17.91,10.91,10.91,0,0,0-1.46,2.6,31.32,31.32,0,0,1-1.45,3,3,3,0,0,1-3.75,1.25,5.07,5.07,0,0,1-3-3h0a.13.13,0,0,0,0-.06,1.07,1.07,0,0,0,0-.25,6.57,6.57,0,0,1-.13-2.46l0-.31,0-.3c.11,0,.1-.12.1-.21A7.78,7.78,0,0,1,15.8,18a9.86,9.86,0,0,0,.28-1.31,4.31,4.31,0,0,0,.25-1.51,1.79,1.79,0,0,0-.76-1.93c-.2-.13-.35-.2-.57,0A7.48,7.48,0,0,1,14,14a.93.93,0,0,0-.51,1.13l0,4c0,.12,0,.23,0,.35,0,.92-.12,1.83-.17,2.75a5.88,5.88,0,0,1-.34,1.42,2.26,2.26,0,0,1-2.31,1.69,4.52,4.52,0,0,1-2.41-.76,6.66,6.66,0,0,1-2.77-3.05c-.12-.28-.21-.58-.31-.88V20.5a9.26,9.26,0,0,1,0-1.58c0-.35.18-.67.25-1s.27-.53.33-.82L6.38,16a2.19,2.19,0,0,0,.42-.62,2.53,2.53,0,0,0,.67-.75c.16,0,.22-.2.31-.32a3.47,3.47,0,0,0,.64-.63c.15-.05.22-.18.31-.3a5,5,0,0,0,.89-.77l.11-.05s0,0,0,0A.4.4,0,0,0,9.81,12a1.84,1.84,0,0,1-.08-.42c-.15-.58-.19-1.18-.38-1.75A9.37,9.37,0,0,0,9.16,9c-.18-.7-.63-.9-1.26-.55A3.47,3.47,0,0,0,6.15,11a7.09,7.09,0,0,1-.37,1.51.69.69,0,0,1-.84.43,4.17,4.17,0,0,1-.58-.24A4.46,4.46,0,0,1,3.12,11.5,1.18,1.18,0,0,1,3,11.05c0-.09,0-.18,0-.25a.23.23,0,0,0-.06-.2,6.4,6.4,0,0,1,.23-2A4.68,4.68,0,0,1,4.79,6.09,7.35,7.35,0,0,1,6,5.52l.19,0H7.46a2.61,2.61,0,0,1,.88.13l.19.08L9.39,6a.48.48,0,0,0,.34.23.88.88,0,0,0,.42.26.84.84,0,0,0,.45.4l.64.72.23.27a8.26,8.26,0,0,1,1,1.93c0,.06,0,.12.07.17s0,.24.11.27a.28.28,0,0,0,.32-.18c.14,0,.2-.11.27-.19a3.76,3.76,0,0,0,.95-.73,1.55,1.55,0,0,0,.43-.29l.67-.55c.11-.09.24-.16.3-.31.27-.13.43-.39.66-.57s.26-.15.26-.33c.11,0,.17-.06.23-.12A11.48,11.48,0,0,0,18.2,5.07a.23.23,0,0,0,0-.12,3.72,3.72,0,0,0,.5-1.24,6,6,0,0,0,.13-1.4c0-.23-.11-.44-.13-.66-.06-.62.11-.69.72-.7A6.93,6.93,0,0,1,20.23,1.12ZM8.68,21.94c0,.23.13.3.32.34A.34.34,0,0,0,9.39,22a2.34,2.34,0,0,0,.27-1.19l.06-.25c.11-.08,0-.19.06-.3a12.4,12.4,0,0,0,.14-2.51c-.1,0-.12,0-.14.06a6.28,6.28,0,0,0-1.21,2.8,1.73,1.73,0,0,0,.09,1.1Z"/></svg>